<svg width="32" height="30" viewBox="0 0 32 30" fill="none" xmlns="http://www.w3.org/2000/svg">
<path d="M13.9011 26C16.3607 25.995 18.6778 24.8675 20.1734 22.9472V20.6356H16.8191V17.4051H20.1742L20.1732 14.1079H20.5144C18.5637 10.1175 14.9843 5.39185 13.901 4C12.3905 5.94508 5.99927 14.394 5.99927 18.2247C6.00129 20.286 6.83428 22.2629 8.31648 23.7201C9.7977 25.1775 11.8062 25.998 13.9011 26ZM13.9011 24.1503V24.945C12.0908 24.943 10.3561 24.2347 9.07585 22.9751C7.7956 21.7154 7.07565 20.0078 7.07364 18.2266H7.88139C7.88341 19.7971 8.51748 21.3022 9.6453 22.4128C10.7741 23.5234 12.3038 24.1483 13.8991 24.1503L13.9011 24.1503Z" fill="#F88C8C"/>
<path d="M22.6505 14.9023H20.9825V18.1985H17.6282V19.8396H20.9825V23.1357H22.6505V19.8396H26.0006V18.1985H22.6505V14.9023Z" fill="#F88C8C"/>
</svg>
