<svg width="31" height="30" viewBox="0 0 31 30" fill="none" xmlns="http://www.w3.org/2000/svg">
<path d="M19.241 14.8307C19.2165 15.9541 17.5516 16.8613 15.5004 16.8613C13.4489 16.8613 11.7837 15.9541 11.7592 14.8307C8.62101 15.1174 6.16296 17.7555 6.16296 20.9676C6.16296 23.1348 7.28216 23.9178 8.97301 24.2018C8.43413 24.6361 8.08779 25.3007 8.08779 26.0453C8.08779 27.3507 9.14976 28.4124 10.4552 28.4124C11.7604 28.4124 12.8227 27.3504 12.8227 26.0453C12.8227 26.0038 12.8215 25.9636 12.8194 25.9228L13.6957 25.0465C13.7368 25.0486 13.7773 25.0495 13.8185 25.0495C13.8596 25.0495 13.9001 25.0486 13.9413 25.0465L14.8173 25.9225C14.8152 25.9636 14.814 26.0038 14.814 26.0453C14.814 27.3507 15.8759 28.4124 17.1817 28.4124C18.4869 28.4124 19.5486 27.3504 19.5486 26.0453C19.5486 26.0038 19.548 25.9633 19.5456 25.9222L20.4216 25.0465C20.4624 25.0486 20.5035 25.0495 20.5444 25.0495C21.3065 25.0495 21.984 24.6858 22.417 24.1249C23.8876 23.7854 24.8369 22.9637 24.8369 20.9679C24.8375 17.7555 22.3798 15.1174 19.241 14.8307ZM20.545 24.0367C20.3825 24.0367 20.2272 24.0066 20.0821 23.9544L18.4538 25.5824C18.5069 25.727 18.5364 25.8822 18.5364 26.0453C18.5364 26.7937 17.9298 27.4002 17.1817 27.4002C16.433 27.4002 15.8265 26.7937 15.8265 26.0453C15.8265 25.8822 15.8563 25.7272 15.9084 25.5824L14.2805 23.9544C14.1362 24.0069 13.9809 24.0367 13.8182 24.0367C13.6554 24.0367 13.5002 24.0066 13.3559 23.9544L11.7276 25.5824C11.7804 25.727 11.8105 25.8822 11.8105 26.0453C11.8105 26.7937 11.2034 27.4002 10.4552 27.4002C9.70652 27.4002 9.09999 26.7937 9.09999 26.0453C9.09999 25.2969 9.70682 24.69 10.4552 24.69C10.6177 24.69 10.773 24.7201 10.9178 24.7723L12.5461 23.1443C12.4936 23.0001 12.4635 22.8445 12.4635 22.6817C12.4635 21.933 13.0701 21.3265 13.8185 21.3265C14.5669 21.3265 15.1737 21.933 15.1737 22.6817C15.1737 22.8445 15.1433 22.9998 15.0909 23.1443L16.7188 24.7723C16.8631 24.7198 17.0187 24.69 17.1817 24.69C17.3442 24.69 17.4994 24.7201 17.644 24.7723L19.2729 23.1443C19.2198 23.0001 19.1897 22.8445 19.1897 22.6817C19.1897 21.933 19.7968 21.3265 20.545 21.3265C21.2937 21.3265 21.9002 21.933 21.9002 22.6817C21.9002 23.4299 21.2937 24.0367 20.545 24.0367Z" fill="#CCB642"/>
<path d="M10.3202 10.5632C10.4549 10.5992 10.5968 10.6198 10.7437 10.6198H11.0343C11.0355 10.6198 11.0367 10.6195 11.0379 10.6195C11.6474 13.3691 13.4143 15.3577 15.5 15.3577C17.3721 15.3577 18.9846 13.7515 19.736 11.4335C20.0901 11.1828 20.3828 10.8955 20.5977 10.5799C20.6158 10.5763 20.6331 10.5745 20.6501 10.5706C21.3145 10.4064 21.8045 9.84039 21.8045 9.16471V8.02316C21.8045 7.34777 21.3142 6.78117 20.6501 6.61754V6.4405C20.6501 3.76457 18.3327 1.58759 15.4845 1.58759C12.6369 1.58759 10.3199 3.76457 10.3199 6.4405V6.6244C9.6713 6.79786 9.19531 7.3579 9.19531 8.02316V9.16471C9.19561 9.83026 9.6716 10.39 10.3202 10.5632ZM15.4845 2.60067C17.5584 2.60067 19.2716 4.05964 19.5336 5.94096C18.7071 4.50434 17.2121 3.54192 15.5 3.54192C13.76 3.54192 12.2426 4.53534 11.4253 6.0113C11.6537 4.09541 13.3862 2.60067 15.4845 2.60067ZM12.0733 9.73727C12.0733 9.73667 11.6072 6.97073 12.5913 6.58267C12.5913 6.58267 13.9484 7.24166 15.5 7.28429C17.052 7.24166 18.4093 6.58267 18.4093 6.58267C19.3926 6.97103 18.9262 9.73727 18.9262 9.73727C19.1685 9.56827 19.3902 9.47975 19.5723 9.43325V9.49942C19.5414 9.80642 19.4943 10.1051 19.4326 10.3954C18.7906 10.9766 17.6863 11.395 16.4195 11.4728C16.3024 11.3733 16.1525 11.3113 15.9865 11.3113H15.0908C14.7182 11.3113 14.416 11.6135 14.416 11.9861C14.416 12.3587 14.7179 12.6606 15.0908 12.6606H15.9865C16.168 12.6606 16.3322 12.5879 16.4538 12.4707C17.3921 12.4183 18.2484 12.2078 18.9593 11.88C18.2266 13.5378 16.9519 14.6364 15.5 14.6364C13.4137 14.6364 11.6891 12.37 11.4188 9.43057C11.6024 9.47647 11.8277 9.56589 12.0733 9.73727Z" fill="#CCB642"/>
</svg>
