<svg width="31" height="30" viewBox="0 0 31 30" fill="none" xmlns="http://www.w3.org/2000/svg">
<path fill-rule="evenodd" clip-rule="evenodd" d="M5.1343 21.31L3.68969 22.533L8.38142 28.0697L9.82603 26.8466L5.1343 21.31ZM3.74402 23.5802L7.45257 27.9567L6.73134 28.9134L2.68188 24.1352L3.74402 23.5802ZM6.90602 24.5422C6.97633 24.6125 6.98699 24.7223 6.93159 24.8054C6.87726 24.8885 6.77072 24.9204 6.6791 24.8821C6.58748 24.8437 6.53528 24.7468 6.55446 24.6488C6.5747 24.5518 6.65993 24.4815 6.759 24.4815C6.8144 24.4815 6.8666 24.5039 6.90602 24.5422ZM6.75794 23.8444C7.16171 23.8444 7.509 24.1289 7.58785 24.5252C7.66668 24.9204 7.45468 25.3167 7.0818 25.4712C6.70892 25.6257 6.2796 25.4947 6.05482 25.1601C5.8311 24.8246 5.87478 24.3771 6.16029 24.0916C6.31902 23.9329 6.53422 23.8434 6.75794 23.8444ZM18.678 6.44198L17.6297 9.8437H17.6308C17.5903 9.97794 17.4667 10.0696 17.3272 10.0706C17.1876 10.0706 17.063 9.98007 17.0225 9.84583L16.4504 7.98894H11.7843C11.7481 7.98894 11.7193 8.01877 11.7193 8.05393V8.09548C11.7193 8.10932 11.7236 8.12317 11.731 8.13383L11.7385 8.14128C11.7502 8.15407 11.7672 8.16046 11.7843 8.16046H16.0882C16.2277 8.16046 16.3513 8.25208 16.3918 8.38525L17.3272 11.4204L18.3755 8.0187L18.3744 8.01764C18.4149 7.8834 18.5385 7.79178 18.6781 7.79072C18.8187 7.79072 18.9423 7.88234 18.9827 8.01551L19.4131 9.41642L22.4399 9.41749C22.4569 9.41749 22.474 9.4111 22.4857 9.39938H22.4867C22.4985 9.38659 22.5049 9.37061 22.5049 9.35357V9.31202C22.5049 9.29498 22.4985 9.27793 22.4867 9.26514C22.474 9.25343 22.4569 9.24703 22.4399 9.24703H19.7765C19.637 9.24703 19.5144 9.15541 19.4729 9.02225L18.6781 6.44306L18.678 6.44198ZM17.3261 8.67387L16.9959 7.60107C16.9629 7.45511 16.8339 7.35178 16.6848 7.35178H13.5228C13.4717 6.48033 13.771 5.6238 14.3559 4.97501C14.7671 4.52758 15.2881 4.19411 15.8676 4.00768C16.4493 3.81591 17.0693 3.77224 17.6723 3.88303C18.6418 4.06734 19.4813 4.67031 19.9671 5.53006C20.0566 5.68134 20.2515 5.73141 20.4028 5.64192C20.4508 5.61422 20.4902 5.57481 20.5179 5.52686C21.2039 4.32089 22.5569 3.65612 23.9313 3.85215C24.7644 3.95443 25.5347 4.34435 26.111 4.95479C26.7204 5.62063 27.0272 6.50912 26.959 7.40827C26.844 9.4825 25.0894 12.2778 20.2409 15.4046L20.242 15.4057C18.6461 14.4117 17.1771 13.2303 15.8645 11.8837C14.9866 11.0016 14.2942 9.95225 13.8265 8.79861H15.8527L17.0214 12.5922V12.5912C17.0619 12.7254 17.1844 12.8181 17.3251 12.8181C17.4646 12.8192 17.5882 12.7275 17.6297 12.5933L18.6781 9.19049L18.8677 9.80732H18.8687C18.9007 9.95327 19.0307 10.0566 19.1798 10.0566H22.4397C22.6251 10.0566 22.803 9.98204 22.9351 9.851L22.9372 9.84887H22.9362C23.0683 9.71783 23.1418 9.53992 23.1429 9.35349V9.31194V9.313C23.1429 9.12657 23.0683 8.94867 22.9362 8.81762H22.9351C22.8041 8.68552 22.6262 8.61095 22.4397 8.61095H20.0108L18.9827 5.27113C18.9433 5.13689 18.8197 5.04528 18.6802 5.04421C18.5395 5.04315 18.416 5.13476 18.3744 5.269L17.3261 8.67387ZM23.8312 7.52969C23.8333 7.61599 23.8014 7.69908 23.7407 7.76087C23.681 7.82266 23.599 7.85782 23.5127 7.85782C23.4264 7.85782 23.3433 7.82266 23.2836 7.76087C23.2229 7.69908 23.1909 7.61599 23.1931 7.52969V6.79461H22.458C22.3728 6.79674 22.2886 6.76478 22.2268 6.70406C22.165 6.6444 22.1299 6.56237 22.1299 6.47607C22.1299 6.38978 22.165 6.30669 22.2268 6.24703C22.2886 6.1863 22.3728 6.15434 22.458 6.15647H23.1931V5.42246C23.1909 5.33616 23.2229 5.252 23.2836 5.19021C23.3433 5.12842 23.4264 5.09327 23.5127 5.09327C23.599 5.09327 23.681 5.12842 23.7407 5.19021C23.8014 5.252 23.8333 5.33616 23.8312 5.42246V6.15754H24.5663V6.15647C24.7378 6.1618 24.8752 6.30349 24.8752 6.47608C24.8752 6.6476 24.7378 6.78928 24.5663 6.79463H23.8312V7.52969ZM9.90821 25.959L5.88221 21.2086C6.52994 20.6813 6.99548 19.9227 7.48023 19.1312C8.4465 17.5556 9.49904 15.8415 12.2592 15.9779H12.2795L18.0291 15.8842L18.028 15.8852C18.4851 15.9246 18.8942 16.1846 19.1243 16.5809C19.2063 16.7546 19.2425 16.9474 19.2287 17.1391C19.2148 17.3384 19.1573 17.5333 19.0603 17.7091C18.8899 18.0511 18.5575 18.2844 18.1772 18.3291L18.1484 18.3323L14.8533 18.8682H14.8448C14.6626 18.8841 14.4954 18.9726 14.3814 19.1153C14.2993 19.2208 14.2557 19.3497 14.2535 19.4829C14.2514 19.6043 14.2791 19.7247 14.3334 19.8334C14.4432 20.0486 14.6328 20.2116 14.8608 20.2872C14.9077 20.3032 14.9567 20.3075 15.0046 20.3011L18.0185 19.8941C18.0942 19.8845 18.1581 19.8781 18.2199 19.8728C18.4734 19.8675 18.7238 19.8057 18.9507 19.6917L26.0501 15.8244C26.7031 15.605 27.4105 15.6156 28.0561 15.8543C28.2095 15.9182 28.3416 16.0215 28.4396 16.1547C28.5078 16.2527 28.5334 16.3742 28.5131 16.4924C28.414 16.8216 28.1978 17.1039 27.9059 17.2861L19.315 23.0666C17.8139 24.0765 16.3128 24.1372 14.8758 24.1958C13.119 24.2672 11.4518 24.3354 9.90821 25.959Z" fill="#50A99B"/>
</svg>
