<svg width="30" height="30" viewBox="0 0 30 30" fill="none" xmlns="http://www.w3.org/2000/svg">
<path d="M14.9555 2.44568C8.03154 2.44568 2.39844 8.07848 2.39844 15.0025C2.39874 21.9265 8.03154 27.559 14.9555 27.559C21.8792 27.559 27.512 21.9265 27.512 15.0028C27.512 8.07848 21.8792 2.44568 14.9555 2.44568ZM12.0071 13.8304L13.0034 14.6965L22.4366 22.8967C20.4851 24.7471 17.8511 25.8868 14.9555 25.8868C8.95404 25.8868 4.07154 21.0043 4.07154 15.0028C4.07154 12.6514 4.82334 10.4734 6.09624 8.69228L12.0071 13.8304ZM17.9597 16.1749L16.6883 15.0697L15.2627 13.8304L16.6889 15.0697L7.50084 7.08308C9.45024 5.24708 12.0728 4.11848 14.9555 4.11848C20.9567 4.11848 25.8392 9.00098 25.8392 15.0025C25.8392 17.3407 25.0955 19.507 23.8358 21.283L17.9597 16.1749Z" fill="#64D3C2"/>
<path d="M16.7316 14.7322L16.1172 14.2152L16.7316 14.7322Z" fill="#64D3C2"/>
<path d="M24.2401 12.8C24.2479 11.5021 23.1637 10.4404 21.8224 10.4328L15.8098 10.3988C14.9566 10.3942 14.2036 10.8182 13.7656 11.4609L14.4772 12.0598C14.7343 11.6032 15.2302 11.2904 15.8044 11.2936L18.8104 11.3105L18.793 14.2289L17.0434 14.2193L17.1307 14.2928L17.1304 14.2931L18.1129 15.1196L21.7942 15.1402C23.1352 15.1484 24.232 14.0976 24.2401 12.8Z" fill="#64D3C2"/>
<path d="M5.97586 16.604C5.42086 17.7854 5.96206 19.1838 7.18246 19.7208C8.40316 20.2574 9.84766 19.7344 10.4024 18.5521L12.299 14.515L11.6522 13.9704L11.5715 13.9025L10.8059 15.5323L8.06146 14.3242L9.19786 11.905L8.47066 11.2933C8.46886 11.2974 8.46646 11.3009 8.46436 11.305L5.97586 16.604Z" fill="#64D3C2"/>
<path d="M19.3742 15.4224L18.4766 15.4314L19.481 16.2762C20.1344 16.3139 20.6711 16.7731 20.7944 17.3815L21.6482 18.1003C21.6812 17.9467 21.6989 17.7878 21.6971 17.6243C21.6833 16.3973 20.6423 15.4099 19.3742 15.4224Z" fill="#64D3C2"/>
<path d="M11.422 17.7276C11.4352 18.9547 12.4765 19.9435 13.7446 19.9302L18.6856 19.8805L17.6923 19.045L16.5775 19.0557L16.5673 18.0982L13.4713 15.4926C12.3106 15.6148 11.4094 16.5744 11.422 17.7276Z" fill="#64D3C2"/>
</svg>
