<svg width="30" height="30" viewBox="0 0 30 30" fill="none" xmlns="http://www.w3.org/2000/svg">
<path d="M23.3329 18.9031C23.2617 18.8878 23.1912 18.8719 23.1197 18.8592C22.8911 18.6473 22.7094 18.3512 22.5694 17.9972C22.217 17.1102 22.1136 15.849 22.1231 14.5963C22.1429 12.3408 22.5388 10.1062 22.5388 10.1062C22.5388 10.1062 22.5388 10.1062 22.5388 10.1055C22.5388 9.79316 22.5313 9.49347 22.5196 9.20028C22.5157 9.10765 22.5096 9.01923 22.505 8.92855C22.4943 8.7306 22.4829 8.53557 22.4657 8.3464C22.4569 8.24661 22.4471 8.15007 22.4377 8.05256C22.4205 7.87801 22.3997 7.70769 22.3766 7.54159C22.3646 7.44831 22.3526 7.35502 22.3386 7.26401C22.3132 7.09401 22.2846 6.92759 22.2547 6.76572C22.2394 6.69128 22.2274 6.61457 22.2128 6.54047C22.167 6.31944 22.1182 6.10426 22.0655 5.89786C22.0623 5.89038 22.0616 5.88258 22.059 5.8738C22.0025 5.65733 21.9424 5.45223 21.8773 5.25427C21.8565 5.19512 21.8367 5.13889 21.8162 5.08168C21.7717 4.94516 21.7216 4.81059 21.6716 4.68188C21.6469 4.61719 21.6209 4.55316 21.5949 4.4914C21.5474 4.37471 21.4951 4.26095 21.4437 4.15108C21.4164 4.09063 21.3891 4.03049 21.3605 3.97264C21.304 3.86147 21.2474 3.75421 21.1905 3.65084C21.1632 3.60209 21.1366 3.55236 21.1099 3.50555C21.0332 3.37228 20.9507 3.24259 20.8707 3.12005C20.8632 3.10802 20.8561 3.0947 20.8466 3.08202C20.7553 2.9468 20.6614 2.81841 20.5674 2.69782C20.5395 2.66239 20.5109 2.62924 20.4816 2.59576C20.413 2.51125 20.3451 2.42934 20.2746 2.35133C20.2378 2.31265 20.2021 2.27592 20.166 2.23626C20.102 2.16703 20.036 2.10105 19.9693 2.03701C19.9326 2.00093 19.8962 1.96583 19.8595 1.93235C19.7896 1.86897 19.7204 1.80981 19.6498 1.75065C19.6157 1.72205 19.5812 1.69279 19.5478 1.66614C19.459 1.59626 19.3693 1.52897 19.2786 1.46624C19.2647 1.45486 19.2487 1.44284 19.2354 1.43308C19.1307 1.35995 19.0241 1.29267 18.9178 1.22928C18.8873 1.21141 18.8564 1.19515 18.8265 1.17793C18.7511 1.1334 18.6747 1.09212 18.6019 1.05474C18.5619 1.03393 18.5239 1.01541 18.4852 0.996228C18.4166 0.963074 18.3506 0.931545 18.2834 0.901641C18.2434 0.884414 18.2053 0.867837 18.166 0.851585C18.0974 0.822331 18.0308 0.796978 17.9616 0.771624C17.9268 0.758298 17.8897 0.744321 17.8569 0.731644C17.7776 0.703041 17.697 0.677037 17.6199 0.653634C17.5985 0.647133 17.5754 0.639007 17.5553 0.633157C17.4568 0.603903 17.3615 0.57855 17.2676 0.555147C17.2357 0.547671 17.2071 0.54182 17.1769 0.535319C17.1129 0.520692 17.0485 0.505415 16.9871 0.493389C16.951 0.486563 16.9146 0.479412 16.8805 0.473561C16.8259 0.463485 16.7713 0.454384 16.7199 0.446258C16.6838 0.440407 16.6487 0.435531 16.6165 0.431631C16.5658 0.424805 16.5145 0.418304 16.4647 0.413103C16.4313 0.409853 16.4004 0.405627 16.3698 0.402377C16.3178 0.397826 16.2678 0.392951 16.218 0.3897C16.192 0.3884 16.1667 0.38515 16.1436 0.38385C16.0744 0.379299 16.011 0.377999 15.9486 0.375073C15.92 0.374423 15.8953 0.374423 15.8667 0.374423C15.8361 0.374423 15.8033 0.373773 15.7734 0.373773C15.6209 0.373773 15.499 0.379624 15.4129 0.3871C15.4009 0.3871 15.3931 0.38775 15.3837 0.38905C15.3525 0.391 15.3278 0.393601 15.3099 0.395551C15.303 0.396201 15.2946 0.396851 15.29 0.398151C15.2728 0.398802 15.2627 0.400752 15.2627 0.400752C15.174 0.394901 15.0856 0.391326 14.9985 0.388075C14.9114 0.390675 14.8239 0.394901 14.7342 0.399452C14.7342 0.399452 14.7235 0.398801 14.7069 0.396851C14.7011 0.396201 14.6929 0.395551 14.6877 0.394901C14.6705 0.392951 14.6439 0.39035 14.614 0.388075C14.6058 0.387425 14.5961 0.387425 14.5847 0.386775C14.4989 0.378974 14.3777 0.373123 14.2252 0.373123C14.1947 0.373123 14.1605 0.373123 14.128 0.373123C14.1014 0.373123 14.0786 0.373123 14.0513 0.373773C13.9892 0.375723 13.9226 0.378974 13.854 0.382549C13.8335 0.383849 13.8108 0.3858 13.7893 0.38775C13.738 0.391 13.6847 0.395226 13.6281 0.401727C13.5989 0.403677 13.569 0.407578 13.5403 0.411153C13.4877 0.417004 13.435 0.42383 13.3798 0.430981C13.3479 0.435531 13.3164 0.440407 13.2839 0.444957C13.226 0.453734 13.1688 0.463485 13.1093 0.474861C13.0781 0.480712 13.0466 0.485588 13.0148 0.491438C12.9455 0.505415 12.8776 0.521342 12.8051 0.536619C12.7811 0.54247 12.758 0.547996 12.732 0.553196C12.6348 0.575949 12.5363 0.601953 12.4375 0.632506C12.4216 0.636407 12.4056 0.642583 12.3894 0.647133C12.3068 0.673137 12.2223 0.70044 12.1375 0.730344C12.105 0.74172 12.0721 0.754397 12.039 0.767074C11.9678 0.793727 11.8973 0.821681 11.8258 0.851585C11.7897 0.866212 11.7526 0.882139 11.7172 0.898716C11.646 0.92862 11.5755 0.963399 11.504 0.997853C11.4685 1.01508 11.4321 1.03198 11.3967 1.05116C11.3187 1.09179 11.2381 1.13632 11.1588 1.18248C11.1328 1.1984 11.1055 1.21173 11.0788 1.22831C10.9722 1.29234 10.8649 1.36027 10.757 1.43471C10.7469 1.44154 10.7372 1.44934 10.7278 1.45616C10.6325 1.5228 10.5379 1.59333 10.444 1.66809C10.4121 1.69279 10.3806 1.7201 10.3488 1.74545C10.2756 1.80591 10.2041 1.86864 10.1323 1.93332C10.0962 1.96713 10.0605 2.00126 10.0257 2.03441C9.95644 2.09974 9.8898 2.16833 9.82252 2.23951C9.78839 2.27559 9.75394 2.312 9.72046 2.34873C9.64797 2.42869 9.57711 2.5132 9.50658 2.59933C9.48058 2.63184 9.45457 2.66142 9.42857 2.69522C9.33203 2.81711 9.2381 2.9455 9.14611 3.0817C9.13928 3.09177 9.13343 3.10315 9.12693 3.11225C9.04307 3.23739 8.96311 3.36871 8.8812 3.50588C8.8552 3.55106 8.83114 3.59981 8.80449 3.64694C8.74663 3.75291 8.68845 3.86147 8.63254 3.97394C8.60394 4.03179 8.57729 4.08998 8.54998 4.14978C8.49863 4.2616 8.44792 4.37634 8.39689 4.49465C8.37218 4.55674 8.34553 4.61849 8.32148 4.68188C8.27077 4.81254 8.22169 4.94841 8.17488 5.08753C8.15636 5.14409 8.1349 5.19739 8.11768 5.25525C8.05234 5.4545 7.99059 5.6609 7.93435 5.87673C7.9324 5.88486 7.9298 5.89461 7.9285 5.90273C7.87585 6.10848 7.82579 6.32301 7.78191 6.54404C7.76793 6.61718 7.75526 6.69323 7.74063 6.76637C7.71072 6.92824 7.68147 7.09596 7.65547 7.26661C7.64149 7.35665 7.63011 7.44993 7.61744 7.54289C7.59533 7.70932 7.57421 7.87931 7.55828 8.05516C7.54755 8.153 7.53845 8.24954 7.52968 8.34965C7.5144 8.53752 7.50042 8.73255 7.4897 8.92985C7.4845 9.02118 7.47832 9.1096 7.47507 9.20353C7.46304 9.49607 7.45524 9.79641 7.45524 10.1081C7.45524 10.1081 7.45524 10.1081 7.45524 10.1088C7.45524 10.1088 7.85082 12.3441 7.87097 14.5989C7.883 15.8519 7.77833 17.1121 7.42534 18.0011C7.28362 18.3548 7.1042 18.6512 6.87504 18.8612C6.80126 18.8751 6.73235 18.8904 6.66312 18.907C6.28737 18.9941 5.06261 19.0975 3.82485 20.4168C3.07205 21.22 2.31406 22.4717 1.74003 24.4451C1.68868 24.6229 1.65357 24.8033 1.63797 24.9859C1.58661 25.5307 1.69128 26.0823 1.94156 26.5552C3.18387 28.905 9.71786 29.6269 14.9998 29.6269C20.2817 29.6269 26.8173 28.905 28.0593 26.5549C28.3076 26.0794 28.4123 25.5284 28.3629 24.985C28.3395 24.7997 28.305 24.6186 28.2543 24.4408C27.681 22.4659 26.923 21.2158 26.1708 20.4139C24.9327 19.0942 23.7067 18.9899 23.3329 18.9031ZM9.17374 9.69792C9.20689 9.67452 9.24297 9.65859 9.281 9.65209C9.36746 9.63746 9.45815 9.66997 9.54624 9.74148C9.54624 9.74148 9.54624 9.73498 9.54819 9.72165C9.57874 9.42326 9.97594 6.07501 12.483 6.30741L20.1468 10.2524L20.7696 9.65306C20.7901 9.65697 20.8122 9.66379 20.831 9.67289C21.1021 9.80128 21.2201 10.4384 21.0888 11.1661C20.9897 11.7242 20.7719 12.1845 20.5414 12.3811C20.4481 12.4585 20.3529 12.4956 20.2635 12.4803C20.2128 12.4715 20.1644 12.4465 20.1231 12.4071C19.6115 13.9969 18.6351 15.5809 17.4022 16.5335C16.6822 17.0877 15.8761 17.4268 15.0229 17.4268C14.1651 17.4268 13.3538 17.0832 12.6309 16.5222C11.4045 15.5691 10.4316 13.9904 9.92328 12.4071C9.88135 12.4452 9.83617 12.4705 9.78417 12.4803C9.68015 12.4988 9.56769 12.4461 9.46172 12.3392C9.2472 12.1234 9.05022 11.6878 8.95628 11.1661C8.83342 10.4787 8.93126 9.87182 9.17374 9.69792ZM9.76856 26.8731C9.65837 26.9648 9.52088 27.0152 9.37624 27.0152H8.69755C8.35691 27.0152 8.07997 26.7379 8.07997 26.3976L8.08225 26.354C8.105 26.0352 8.37511 25.7803 8.69788 25.7803H9.37624C9.44547 25.7803 9.51373 25.7917 9.57906 25.8148C9.62002 25.8031 9.63302 25.7937 9.63302 25.7937C9.70876 25.6597 9.70876 25.1016 9.70876 24.8338C9.70876 24.2946 9.57354 23.6422 9.33626 23.035C9.21339 22.9651 9.11425 22.8595 9.05315 22.7318C8.64132 21.8704 8.08192 21.3136 7.62686 21.3136C7.16173 21.3136 6.57438 21.9156 6.16483 22.8104C6.09787 22.9564 5.98053 23.075 5.83588 23.1455C5.62201 23.7257 5.50434 24.3225 5.50434 24.8335C5.50434 25.0587 5.50434 25.6558 5.59048 25.7959C5.59145 25.7959 5.61063 25.8076 5.66426 25.8206C5.73447 25.794 5.80988 25.78 5.88562 25.78H6.5656C6.87959 25.78 7.1419 26.017 7.17798 26.3254L7.18156 26.3323L7.18286 26.3729C7.18286 26.7376 6.90592 27.0148 6.56593 27.0148H5.88594C5.75105 27.0148 5.62071 26.9697 5.51344 26.8874C5.12534 26.8146 4.85133 26.6433 4.67776 26.3644C4.46811 26.027 4.42975 25.5843 4.42975 24.8335C4.42975 24.1746 4.58187 23.4166 4.85816 22.6921C4.81753 22.5371 4.83118 22.3749 4.89846 22.2293C5.18645 21.6 5.55245 21.0611 5.9568 20.6713C6.17913 20.4568 6.41771 20.2849 6.66799 20.1591C6.75933 19.9452 6.9147 19.7658 7.10647 19.651C7.20723 19.0835 7.52513 18.4825 7.98864 17.9904C8.62702 17.3117 9.42889 16.9386 10.2464 16.9386H10.4089V16.9418C10.6917 16.9577 10.9173 17.1901 10.9173 17.4768C10.9173 17.7635 10.6917 17.9962 10.4089 18.0118V18.0138H10.3884C10.3848 18.0138 10.3819 18.0151 10.379 18.0151C10.3761 18.0151 10.3725 18.0138 10.3696 18.0138H10.2464C9.23972 18.0138 8.40566 18.9681 8.19504 19.7082C8.33936 19.8155 8.4567 19.9608 8.53373 20.1305C9.22802 20.4578 9.84137 21.1475 10.3111 22.1295C10.3897 22.2949 10.3998 22.4815 10.3423 22.6518C10.6237 23.3767 10.7846 24.1681 10.7846 24.8332C10.7843 25.7657 10.7843 26.6469 9.76856 26.8731ZM14.9959 23.7309C14.9959 23.7309 10.9608 19.915 10.3007 19.0711C10.1615 18.8908 10.0741 18.7016 10.0504 18.5043V18.5036C10.0829 18.4916 10.1576 18.4656 10.2581 18.4198C10.2987 18.4025 10.3445 18.3798 10.3894 18.3544C10.7889 18.1454 11.3752 17.7089 11.3752 16.9398C11.3752 16.9398 11.3752 16.9398 11.3759 16.9398C12.0052 17.5626 12.7066 18.0583 13.4545 18.3544C13.9574 18.5543 14.4823 18.6648 15.0212 18.6648C15.5608 18.6648 16.0851 18.5543 16.5879 18.3544C17.3294 18.0612 18.022 17.5737 18.6494 16.9571C18.6539 16.9597 18.6581 16.9616 18.6627 16.9639C18.6773 17.9537 19.6719 18.3879 19.9407 18.488C19.9414 18.4913 19.9407 18.4968 19.9394 18.504C19.9167 18.7003 19.8283 18.8904 19.6888 19.0708C19.0297 19.9137 14.9959 23.7309 14.9959 23.7309ZM21.825 26.6609C21.825 26.773 21.7233 26.864 21.5978 26.864H20.3623V28.0989C20.3623 28.2247 20.2713 28.3267 20.1595 28.3267H18.9403C18.8281 28.3267 18.7374 28.2247 18.7374 28.0989V26.864H17.502C17.3765 26.864 17.2744 26.773 17.2744 26.6609V25.442C17.2744 25.3295 17.3765 25.2388 17.502 25.2388H18.7374V24.0033C18.7374 23.8775 18.8281 23.7761 18.9403 23.7761H20.1595C20.2713 23.7761 20.3623 23.8779 20.3623 24.0033V25.2388H21.5978C21.7236 25.2388 21.825 25.3295 21.825 25.442V26.6609ZM23.3251 22.3128C23.0101 22.9008 22.4 23.2661 21.7334 23.2661C21.4392 23.2661 21.1447 23.192 20.8837 23.0526C20.4589 22.8254 20.1481 22.4464 20.0087 21.9855C19.8689 21.5242 19.9173 21.0364 20.1445 20.6118C20.3698 20.1906 20.7547 19.8802 21.2152 19.7427C21.0553 19.1157 20.6256 18.3648 19.8705 18.1168L19.6895 18.0573C19.6745 18.0521 19.6589 18.0489 19.6446 18.0427L19.5868 18.0235L19.5903 18.0128C19.4282 17.9192 19.3173 17.7456 19.3173 17.5451C19.3173 17.246 19.5598 17.0036 19.8588 17.0036C19.8796 17.0036 19.8995 17.0075 19.9199 17.0101L19.9229 17.0019L19.9609 17.0143C20.0048 17.0224 20.0461 17.0367 20.0851 17.0549L20.2066 17.0946C20.9838 17.3504 21.6287 17.9553 22.0233 18.7991C22.1686 19.1085 22.2693 19.4313 22.3233 19.7589C22.4169 19.7908 22.5037 19.8282 22.5859 19.8721C23.4619 20.3411 23.7938 21.4358 23.3251 22.3128Z" fill="#C67070"/>
<path d="M21.7344 22.4373C22.2729 22.4373 22.7095 22.0007 22.7095 21.4622C22.7095 20.9236 22.2729 20.487 21.7344 20.487C21.1959 20.487 20.7593 20.9236 20.7593 21.4622C20.7593 22.0007 21.1959 22.4373 21.7344 22.4373Z" fill="#C67070"/>
</svg>
